<?xml version="1.0" standalone="no"?>
<!DOCTYPE svg PUBLIC "-//W3C//DTD SVG 20010904//EN"
 "http://www.w3.org/TR/2001/REC-SVG-20010904/DTD/svg10.dtd">
<svg version="1.0" xmlns="http://www.w3.org/2000/svg"
 width="474.000000pt" height="474.000000pt" viewBox="0 0 474.000000 474.000000"
 preserveAspectRatio="xMidYMid meet">

<g transform="translate(0.000000,474.000000) scale(0.100000,-0.100000)"
fill="#000000" stroke="none">
<path d="M2172 4200 c-655 -69 -1214 -452 -1502 -1028 -223 -448 -260 -954
-104 -1429 208 -638 762 -1122 1433 -1254 135 -26 416 -36 551 -20 820 101
1465 690 1631 1490 113 547 -35 1138 -394 1567 -295 354 -680 576 -1133 654
-131 23 -365 32 -482 20z m693 -801 c29 -115 87 -219 158 -286 80 -75 131 -99
273 -128 142 -29 215 -67 292 -149 95 -103 148 -242 158 -416 l5 -95 -24 70
c-84 248 -246 411 -479 485 -57 18 -126 46 -154 61 -156 87 -251 290 -259 549
-4 112 -3 117 5 49 5 -42 16 -105 25 -140z m11 -438 c33 -73 65 -114 119 -151
59 -40 107 -57 223 -75 204 -33 313 -121 357 -292 8 -31 15 -73 15 -93 0 -34
0 -34 -29 25 -74 155 -198 246 -407 301 -110 28 -163 55 -216 109 -65 67 -109
184 -107 285 l1 55 9 -55 c5 -30 21 -79 35 -109z m-1096 -871 l0 -150 -475 0
-475 0 0 150 0 150 475 0 475 0 0 -150z m1739 0 l2 -150 -861 0 -860 0 0 150
0 150 859 0 859 0 1 -150z m91 0 l0 -150 -30 0 -30 0 0 150 0 150 30 0 30 0 0
-150z m110 0 l0 -150 -40 0 -40 0 0 150 0 150 40 0 40 0 0 -150z m90 0 l0
-150 -30 0 -30 0 0 150 0 150 30 0 30 0 0 -150z"/>
</g>
</svg>
